<svg xmlns="http://www.w3.org/2000/svg" xmlns:xlink="http://www.w3.org/1999/xlink" viewBox="0 0 500 500"><defs><clipPath id="freepik--clip-path--inject-31"><path d="M138.06,414.69a114.73,114.73,0,0,0-2.89,11.36c-.81,4.63-10,27.83-10.9,28.52s-11.14,4.07-13.29,4.56-6.81,1.66-7.19,2.72-4.19,4.74-4.21,5.45,1.06.91,1.59.75,2.69-.67,2.69-.67-2.71,1.74-2.55,2.81a2.52,2.52,0,0,0,1,1.63s-.54.52,1.77.74,6.1-1.84,6.1-1.84-2,3.35-2.94,4.76,1,1.8,3.89,1.5,5.44-4.53,6.55-6.3,5-2.58,5.76-2.56,7.5-.57,7.5-.57a23.89,23.89,0,0,1-2.78,5.65c-1.84,2.64,1.33,4.85,3.11,5.06s2.7-1,2.56-3a6.82,6.82,0,0,1,2.8-6.54c2.71-1.91,5.13-6.86,5.18-9.54s.15-7.85.15-7.85,8.31-15,12.19-21.71,5.6-13.1,5.85-16.48-2.38-6.47-4.13-8.11S138.06,414.69,138.06,414.69Z" style="fill:#999;stroke:#263238;stroke-linecap:round;stroke-linejoin:round"></path></clipPath><clipPath id="freepik--clip-path-2--inject-31"><path d="M123.6,364.46s-5.86,11.17-6.43,20.89,6.29,16.84,9,17.67,9.55,9.13,9.73,10.11a18.9,18.9,0,0,0,.92,2.74,18,18,0,0,0,12.46-.54c6.66-2.79,8.7-7.42,8.7-7.42l-1.47-4.5s6.37,2.65,8.45,5.41,2,7.43,2,7.43l0,1.36S182,420.24,194,416s21.85-13.78,23.89-18.8a75.24,75.24,0,0,0,3.33-11.41s-21.06-17.52-25.65-21.49l-4.59-4,11.25,1.38s6.22.31,8.07-4.9-1.89-12.68-8.09-14.35-26.17-4.39-34.29-7.08-15.53-1.46-20.84,1.74-11.94,14.36-14.71,16.45S123.6,364.46,123.6,364.46Z" style="fill:#364958;stroke:#263238;stroke-linecap:round;stroke-linejoin:round"></path></clipPath><clipPath id="freepik--clip-path-3--inject-31"><path d="M106.32,331.05a20.68,20.68,0,0,0-7.84,11.69c-2.14,8.69,1,8.75,2.61,11s7.48,6.34,7.48,6.34-5.34-.39-3.45,3.6,2.74,4.28,5.56,4.33,2.6-3.33,2.6-3.33,7.24,4.08,14.27,5.06,14.43-3.1,14-9.31-3.07-16.4-7.21-21-11.92-10.09-16.7-11A14.44,14.44,0,0,0,106.32,331.05Z" style="fill:#999;stroke:#263238;stroke-linecap:round;stroke-linejoin:round"></path></clipPath><clipPath id="freepik--clip-path-4--inject-31"><path d="M180.46,319.85s5.54,15.47,6.38,22.68,7.82,18.24,12.47,19.11,10.3.19,12.73-4.62.24-12.83-3.34-18.74S195.62,320.72,194.29,319s-1.7-2.37-1.7-2.37Z" style="fill:#999;stroke:#263238;stroke-linecap:round;stroke-linejoin:round"></path></clipPath><clipPath id="freepik--clip-path-5--inject-31"><path d="M193,199.58s-16.68,25.25-22.54,35.61-17.13,29.3-17.13,29.3-12.62,19.84-12.62,28.4,11.72,11.27,16.23,9.47,23.44-27.05,23.44-27.05l14-20.73,19.39-23.44s31.55,10.36,42.82,14,19.38,9,31.1,8.11a44,44,0,0,0,20.74-7.66s9.92-2.25,16.68-7.66,7.21-20.74,7.21-20.74a146.41,146.41,0,0,0,11.27-24.34,86.58,86.58,0,0,0,4.51-25.24l-.45-8.57,21.63-36.51L305.71,80.13,276,120.25s-14,6.76-19.83,8.11S225,139.63,215.56,150,198,193.27,198,193.27Z" style="fill:#fff;stroke:#263238;stroke-miterlimit:10"></path></clipPath><clipPath id="freepik--clip-path-6--inject-31"><path d="M232.26,190c6,.1,12.19,1.76,14.4,4.17,5,5.41,6.31,14.43,3.16,26.15s-4.51,37-7.21,40.57-9.92,3.6-18.48,3.15-12.18-6.31-13.08-16.68,5.41-46,8.57-52.74C221.21,191.22,226.62,189.91,232.26,190Z" style="fill:#fff;stroke:#263238;stroke-miterlimit:10"></path></clipPath><clipPath id="freepik--clip-path-7--inject-31"><path d="M251.17,201.39s0-7.67,8.57-9.92,16.67-2.71,18.93,4.51,1.8,38.76,2.25,45.52.45,7.67-6.31,13.08-17.13,2.25-21.18,1.35-7.67-8.57-7.67-12.17S251.17,201.39,251.17,201.39Z" style="fill:#fff;stroke:#263238;stroke-miterlimit:10"></path></clipPath><clipPath id="freepik--clip-path-8--inject-31"><path d="M236.67,172.21a65.18,65.18,0,0,1-.52,13.4c-1,8.77-7.21,15.47-7.21,15.47S231,203.5,232,211.39c1.16,8.88-2.14,26.26-6.27,32.44s-8.17,8.81-13.32,8.81-6.71-6.7-6.71-13.41-3.61-16-3.61-16-10.82-20.11-10.31-26.81c.62-8.07,6.92-17.27,10.45-24.32s7-13.74,10.69-20.54a27.84,27.84,0,0,1,17.53-11.34c7-1.46,20.11-8.25,20.11-8.25" style="fill:#fff;stroke:#263238;stroke-miterlimit:10"></path></clipPath></defs><g id="freepik--background-simple--inject-31"><path d="M215.87,466.69s77.87,14.07,142.35-39.53S444.28,284.8,463.66,213.34,453.13,77.4,392.8,55.74s-89.59,29.83-166.17,44.78-99.25,7.31-155.36,61.62S22,321.66,85.9,389.75,215.87,466.69,215.87,466.69Z" style="fill:#364958"></path><path d="M215.87,466.69s77.87,14.07,142.35-39.53S444.28,284.8,463.66,213.34,453.13,77.4,392.8,55.74s-89.59,29.83-166.17,44.78-99.25,7.31-155.36,61.62S22,321.66,85.9,389.75,215.87,466.69,215.87,466.69Z" style="fill:#fff;opacity:0.7000000000000001"></path></g><g id="freepik--Character--inject-31"><path d="M138.06,414.69a114.73,114.73,0,0,0-2.89,11.36c-.81,4.63-10,27.83-10.9,28.52s-11.14,4.07-13.29,4.56-6.81,1.66-7.19,2.72-4.19,4.74-4.21,5.45,1.06.91,1.59.75,2.69-.67,2.69-.67-2.71,1.74-2.55,2.81a2.52,2.52,0,0,0,1,1.63s-.54.52,1.77.74,6.1-1.84,6.1-1.84-2,3.35-2.94,4.76,1,1.8,3.89,1.5,5.44-4.53,6.55-6.3,5-2.58,5.76-2.56,7.5-.57,7.5-.57a23.89,23.89,0,0,1-2.78,5.65c-1.84,2.64,1.33,4.85,3.11,5.06s2.7-1,2.56-3a6.82,6.82,0,0,1,2.8-6.54c2.71-1.91,5.13-6.86,5.18-9.54s.15-7.85.15-7.85,8.31-15,12.19-21.71,5.6-13.1,5.85-16.48-2.38-6.47-4.13-8.11S138.06,414.69,138.06,414.69Z" style="fill:#999"></path><g style="clip-path:url(#freepik--clip-path--inject-31)"><path d="M155.91,405c-1.75-1.64-17.85,9.65-17.85,9.65a114.73,114.73,0,0,0-2.89,11.36c-.81,4.63-10,27.83-10.9,28.52a26.68,26.68,0,0,1-4,1.59c1.87-.4,5.67-.83,8.46,1.26,3.85,2.89,5.77,6.09,4.49,7.7s-7.38.64-10.9,1.28-6.1,3.85-8.34,6.41a33.92,33.92,0,0,1-4.71,4.26,15.41,15.41,0,0,0,1.85-.09c2.86-.3,5.44-4.53,6.55-6.3s5-2.58,5.76-2.56,7.5-.57,7.5-.57a23.89,23.89,0,0,1-2.78,5.65c-1.84,2.64,1.33,4.85,3.11,5.06s2.7-1,2.56-3a6.82,6.82,0,0,1,2.8-6.54c2.71-1.91,5.13-6.86,5.18-9.54s.15-7.85.15-7.85,8.31-15,12.19-21.71,5.6-13.1,5.85-16.48S157.66,406.68,155.91,405Z" style="opacity:0.30000000000000004"></path></g><path d="M138.06,414.69a114.73,114.73,0,0,0-2.89,11.36c-.81,4.63-10,27.83-10.9,28.52s-11.14,4.07-13.29,4.56-6.81,1.66-7.19,2.72-4.19,4.74-4.21,5.45,1.06.91,1.59.75,2.69-.67,2.69-.67-2.71,1.74-2.55,2.81a2.52,2.52,0,0,0,1,1.63s-.54.52,1.77.74,6.1-1.84,6.1-1.84-2,3.35-2.94,4.76,1,1.8,3.89,1.5,5.44-4.53,6.55-6.3,5-2.58,5.76-2.56,7.5-.57,7.5-.57a23.89,23.89,0,0,1-2.78,5.65c-1.84,2.64,1.33,4.85,3.11,5.06s2.7-1,2.56-3a6.82,6.82,0,0,1,2.8-6.54c2.71-1.91,5.13-6.86,5.18-9.54s.15-7.85.15-7.85,8.31-15,12.19-21.71,5.6-13.1,5.85-16.48-2.38-6.47-4.13-8.11S138.06,414.69,138.06,414.69Z" style="fill:none;stroke:#263238;stroke-linecap:round;stroke-linejoin:round"></path><path d="M110.22,470.72s4-4.39,5.11-6,5.58-2.39,5.58-2.39" style="fill:none;stroke:#263238;stroke-linecap:round;stroke-linejoin:round"></path><path d="M103.86,467.38s2.41-4.59,3.68-5.63,5.4-2.22,5.4-2.22" style="fill:none;stroke:#263238;stroke-linecap:round;stroke-linejoin:round"></path><path d="M102.35,471.82a27.58,27.58,0,0,0,5.44-4.54c1.65-2.11,2.39-3.7,4.56-5.09a68.86,68.86,0,0,1,6.31-3.27" style="fill:none;stroke:#263238;stroke-linecap:round;stroke-linejoin:round"></path><path d="M267,435.54s5.87-8.28,9.09-9.11,7.13.68,9.06,2.32,4.84,7.94,8.52,11.4,11.18,12.53,11.1,17-2.32,9.41-4.13,10.44-5.54.79-9.25-1.06-6.83-6.74-10.35-9.48-5.29-3.14-5.29-3.14,3-8-.13-12.13S267,435.54,267,435.54Z" style="fill:#fff;stroke:#263238;stroke-linecap:round;stroke-linejoin:round"></path><path d="M304.79,457.14c.08-4.46-7.42-13.53-11.1-17s-6.59-9.76-8.52-11.4-5.83-3.15-9.06-2.32a5.9,5.9,0,0,0-2,1.1,12,12,0,0,1,9,2.43c4.75,3.84,5.19,8.84,12,14.68s8.87,12.3,8.45,15.51-2.1,6.92-5.14,7.39c-1,.17-2,.31-2.87.43a7.64,7.64,0,0,0,5-.39C302.47,466.55,304.7,461.6,304.79,457.14Z" style="fill:#fff;stroke:#263238;stroke-linecap:round;stroke-linejoin:round"></path><path d="M200.8,427.49s4.31-1.52,5.84,2.25.33,10.71,1.87,14.49,3.94,8.28,1.71,12.88-6.6,9.15-11.25,9.78-8.17-1.59-7.41-4.43,1.89-5.31,1.42-8.54S190.37,441,190.46,436,196.52,427.23,200.8,427.49Z" style="fill:#fff;stroke:#263238;stroke-linecap:round;stroke-linejoin:round"></path><path d="M206.64,429.74a4,4,0,0,0-4.4-2.53,6.83,6.83,0,0,1,3.48,4.3c2.19,6.46,0,10.7,1.85,15s2.33,9,.11,12.85a10.57,10.57,0,0,1-9.74,5.35c-3.74-.08-4.1-.08-5.5-1.54-.31-.32-.58-.62-.82-.91l-.06.18c-.76,2.84,2.76,5.05,7.41,4.43s9-5.18,11.25-9.78-.18-9.1-1.71-12.88S208.18,433.52,206.64,429.74Z" style="fill:#fff;stroke:#263238;stroke-linecap:round;stroke-linejoin:round"></path><path d="M167.84,415.44s-7.08,15.74-12.25,25.1-5.19,28.63-4.7,31.13,9.7,5.72,14,4.56,10.78-3.9,12.25-5.66,17.07-15.73,17.07-15.73,7.56-3.42,8.29-4.48,0-9.63-2.24-13.25-4-4.18-4-4.18l3.67-5.28s4.66-1,6.78,0S232.9,456.3,236,460.1s15.63,12.79,19.55,13.22,8.26-2.87,9.9-4.45,10.37-10.32,11.63-11.19,4.53-3.31,5.28-5.25,1.36-5.87-1.93-11.1-8.6-7.48-10.21-7.51-4.13,1.34-5.75,2a39.84,39.84,0,0,1-6.44,1.3S236,405,231.85,399s-7.3-11-10.64-13.22-8.75.89-8.75.89-7.05,14.5-19.49,21a46,46,0,0,1-24.54,5.06Z" style="fill:#263238;stroke:#263238;stroke-linecap:round;stroke-linejoin:round"></path><line x1="186.22" y1="426.53" x2="183.62" y2="426.41" style="fill:none;stroke:#6b6b6b;stroke-linecap:round;stroke-linejoin:round"></line><line x1="198.17" y1="427.09" x2="190.03" y2="426.71" style="fill:none;stroke:#6b6b6b;stroke-linecap:round;stroke-linejoin:round"></line><path d="M212.75,416.88c-1.09,2.35-1.95,4.24-2.35,5.19" style="fill:none;stroke:#6b6b6b;stroke-linecap:round;stroke-linejoin:round"></path><path d="M222.21,396.81s-4.46,9.38-8,16.85" style="fill:none;stroke:#6b6b6b;stroke-linecap:round;stroke-linejoin:round"></path><line x1="213.5" y1="408.37" x2="206.76" y2="422" style="fill:none;stroke:#6b6b6b;stroke-linecap:round;stroke-linejoin:round"></line><path d="M174.84,468.89a15.15,15.15,0,0,1-2.71,2.3" style="fill:none;stroke:#6b6b6b;stroke-linecap:round;stroke-linejoin:round"></path><path d="M194.77,435.93s-4.66,9.55-8.72,16.26c-2.46,4.07-5.34,9.13-8.28,13.13" style="fill:none;stroke:#6b6b6b;stroke-linecap:round;stroke-linejoin:round"></path><path d="M185.31,453.6s-3.6,10.81-5.79,13.63" style="fill:none;stroke:#6b6b6b;stroke-linecap:round;stroke-linejoin:round"></path><path d="M266,461.19a19.93,19.93,0,0,1-.45,3.05" style="fill:none;stroke:#6b6b6b;stroke-linecap:round;stroke-linejoin:round"></path><path d="M258.07,437.15s8.3,13.72,8.19,19.43" style="fill:none;stroke:#6b6b6b;stroke-linecap:round;stroke-linejoin:round"></path><path d="M258.93,438.59S268.55,449,269.32,455" style="fill:none;stroke:#6b6b6b;stroke-linecap:round;stroke-linejoin:round"></path><path d="M123.6,364.46s-5.86,11.17-6.43,20.89,6.29,16.84,9,17.67,9.55,9.13,9.73,10.11a18.9,18.9,0,0,0,.92,2.74,18,18,0,0,0,12.46-.54c6.66-2.79,8.7-7.42,8.7-7.42l-1.47-4.5s6.37,2.65,8.45,5.41,2,7.43,2,7.43l0,1.36S182,420.24,194,416s21.85-13.78,23.89-18.8a75.24,75.24,0,0,0,3.33-11.41s-21.06-17.52-25.65-21.49l-4.59-4,11.25,1.38s6.22.31,8.07-4.9-1.89-12.68-8.09-14.35-26.17-4.39-34.29-7.08-15.53-1.46-20.84,1.74-11.94,14.36-14.71,16.45S123.6,364.46,123.6,364.46Z" style="fill:#364958"></path><g style="clip-path:url(#freepik--clip-path-2--inject-31)"><path d="M143.33,357.73l4.91-3.17s-.87-8.08,1.15-8.37,11,6.06,13.57,6.93-3.18-3.47-1.16-4.33,23.37,5.77,23.37,5.77-1.44-3.46,3.18-6.64,12.7,6.35,13.85,9.52a7.56,7.56,0,0,1,.29,5.2l-1.44,3.75s3.46,11.25,3.46,19.91-5.48,19.91-2.31,19.62,7.21-14.14,7.21-11,0,6.92-2.59,10.67S195,415.67,194,416s-10.26,3.78-12,4.36-21.64,8.08-21.64,8.08L139,419.48s-2.6-10.38-5.78-14.42-7.5-4.62-9.81-6.93-5.77-6.35-3.75-6.35,4.62.58,4.62-.29-4.62-3.17-4.62-3.17,1.16-15.87,4.91-23.08,14.14-8.95,14.14-8.95Z" style="opacity:0.30000000000000004"></path><path d="M143.36,340.53a35.69,35.69,0,0,0,12.76-2c5.88-2.29,8.17-4.25,8.17-4.25s-3.6-2.29-9.81-1.64S143.36,340.53,143.36,340.53Z" style="opacity:0.30000000000000004"></path></g><path d="M123.6,364.46s-5.86,11.17-6.43,20.89,6.29,16.84,9,17.67,9.55,9.13,9.73,10.11a18.9,18.9,0,0,0,.92,2.74,18,18,0,0,0,12.46-.54c6.66-2.79,8.7-7.42,8.7-7.42l-1.47-4.5s6.37,2.65,8.45,5.41,2,7.43,2,7.43l0,1.36S182,420.24,194,416s21.85-13.78,23.89-18.8a75.24,75.24,0,0,0,3.33-11.41s-21.06-17.52-25.65-21.49l-4.59-4,11.25,1.38s6.22.31,8.07-4.9-1.89-12.68-8.09-14.35-26.17-4.39-34.29-7.08-15.53-1.46-20.84,1.74-11.94,14.36-14.71,16.45S123.6,364.46,123.6,364.46Z" style="fill:none;stroke:#263238;stroke-linecap:round;stroke-linejoin:round"></path><path d="M140.46,347.09s7.09,5.58,9.46,13.79" style="fill:none;stroke:#263238;stroke-linecap:round;stroke-linejoin:round"></path><path d="M124.19,369s9.67,8.38,18,8.24,8.53-9.81,6.24-14.92S138,349.5,138,349.5s4.13,9.61-2.51,13.95a31.3,31.3,0,0,1-12.31,5Z" style="fill:#737373;stroke:#263238;stroke-linecap:round;stroke-linejoin:round"></path><path d="M156.5,403.41s-12.41-2.18-17.43-3.84a96.42,96.42,0,0,1-10.42-4.28" style="fill:none;stroke:#263238;stroke-linecap:round;stroke-linejoin:round"></path><path d="M137.13,399a21.68,21.68,0,0,1-9.31-.95" style="fill:none;stroke:#263238;stroke-linecap:round;stroke-linejoin:round"></path><path d="M193.67,388.9c0,1.2-.09,2.39-.2,3.55" style="fill:none;stroke:#263238;stroke-linecap:round;stroke-linejoin:round"></path><path d="M190.32,364a106.53,106.53,0,0,1,3.33,21.69" style="fill:none;stroke:#263238;stroke-linecap:round;stroke-linejoin:round"></path><path d="M196.48,377.53s1.65,15-1.65,25.06" style="fill:none;stroke:#263238;stroke-linecap:round;stroke-linejoin:round"></path><line x1="190.97" y1="360.31" x2="172.54" y2="357.82" style="fill:none;stroke:#263238;stroke-linecap:round;stroke-linejoin:round"></line><line x1="179.13" y1="359.11" x2="171.92" y2="359.94" style="fill:none;stroke:#263238;stroke-linecap:round;stroke-linejoin:round"></line><path d="M153,368.63c0,.71-.05,1.45-.12,2.23" style="fill:none;stroke:#263238;stroke-linecap:round;stroke-linejoin:round"></path><path d="M150.58,357.2s1.82,2.74,2.28,8.24" style="fill:none;stroke:#263238;stroke-linecap:round;stroke-linejoin:round"></path><path d="M128.72,334.57a1.8,1.8,0,0,1,2-1.75c1.93,0,3.34,4.24,3.76,5.88s-.49,2.08-.92,1.33-5.12-4.72-5.12-4.72Z" style="fill:#999;stroke:#263238;stroke-linecap:round;stroke-linejoin:round"></path><path d="M106.32,331.05a20.68,20.68,0,0,0-7.84,11.69c-2.14,8.69,1,8.75,2.61,11s7.48,6.34,7.48,6.34-5.34-.39-3.45,3.6,2.74,4.28,5.56,4.33,2.6-3.33,2.6-3.33,7.24,4.08,14.27,5.06,14.43-3.1,14-9.31-3.07-16.4-7.21-21-11.92-10.09-16.7-11A14.44,14.44,0,0,0,106.32,331.05Z" style="fill:#999"></path><g style="clip-path:url(#freepik--clip-path-3--inject-31)"><path d="M141.54,360.78a6.18,6.18,0,0,0-.58.77c-2.88,4.49-4.81,5.13-9.94,5.13s-11.54-4.17-16-8-4.41-10.14-9.62-11.22c-2.79-.58-5.44.94-7.3,2.47.62,1.94,2.06,2.53,3,3.86,1.64,2.28,7.48,6.34,7.48,6.34s-5.34-.39-3.45,3.6,2.74,4.28,5.56,4.33,2.6-3.33,2.6-3.33,7.24,4.08,14.27,5.06S141.71,366.81,141.54,360.78Z" style="opacity:0.30000000000000004"></path><path d="M105.43,334.32s10.47,9.81,30.09,6.54c0,0-1.64-4.91-9.49-10.14S105.11,328.11,105.43,334.32Z" style="opacity:0.30000000000000004"></path></g><path d="M106.32,331.05a20.68,20.68,0,0,0-7.84,11.69c-2.14,8.69,1,8.75,2.61,11s7.48,6.34,7.48,6.34-5.34-.39-3.45,3.6,2.74,4.28,5.56,4.33,2.6-3.33,2.6-3.33,7.24,4.08,14.27,5.06,14.43-3.1,14-9.31-3.07-16.4-7.21-21-11.92-10.09-16.7-11A14.44,14.44,0,0,0,106.32,331.05Z" style="fill:none;stroke:#263238;stroke-linecap:round;stroke-linejoin:round"></path><path d="M123.33,343.71s6.49,3.55,6.9,5.19-2.92,4.71-4.42,5.43-3.87-.22-3.83-2.16" style="fill:none;stroke:#263238;stroke-linecap:round;stroke-linejoin:round"></path><line x1="111.58" y1="343.03" x2="110.58" y2="348.53" style="fill:none;stroke:#263238;stroke-linecap:round;stroke-linejoin:round;stroke-width:3px"></line><line x1="119.26" y1="338.41" x2="124.51" y2="336.28" style="fill:none;stroke:#263238;stroke-linecap:round;stroke-linejoin:round;stroke-width:3px"></line><path d="M128.64,362.13s2.78,2.29,5.48,1.59,3.62-2.31,3.82-5.14-2.28-5.4-2.28-5.4S128.82,360.2,128.64,362.13Z" style="fill:#707070;stroke:#263238;stroke-linecap:round;stroke-linejoin:round"></path><path d="M130.46,360.08s3.11,1.1,4.2-1.26-.36-4.33-.81-4.19-2.55.55-3.32,1.87S129.73,359.77,130.46,360.08Z" style="fill:#263238"></path><path d="M135.66,353.18s-3.28-1.14-4.78.8a2.26,2.26,0,0,0-.63,1.62,3.74,3.74,0,0,0-2.44,3.24c0,2.38.83,3.29.83,3.29a4.24,4.24,0,0,0,1.82-2.05c.48-1.33,1.27-3.85,2.92-4.27S135.19,354.66,135.66,353.18Z" style="fill:#707070;stroke:#263238;stroke-linecap:round;stroke-linejoin:round"></path><path d="M116.6,349.79c.88.67,1.34,1.54,1,1.93s-1.26.16-2.14-.52-1.34-1.55-1-1.94S115.72,349.11,116.6,349.79Z" style="fill:#263238"></path><path d="M126.75,341c.87.68,1.34,1.54,1,1.94s-1.26.15-2.14-.53-1.34-1.55-1-1.94S125.87,340.29,126.75,341Z" style="fill:#263238"></path><path d="M117.63,328.45a14.44,14.44,0,0,0-11.31,2.6,20.68,20.68,0,0,0-7.84,11.69c-2.14,8.69,1,8.75,2.61,11s7.48,6.34,7.48,6.34l.62-1.49s-.15.14-.85-2.1,1.88-4.73-.46-7.16-5.18-1.74-5.61-2.49-1.55-4.65.73-7.14,6.44-2.11,7.67-4S112,331,114.21,330s5.66,0,7.59.44,2.67,1.51,3.85,1.8A25.33,25.33,0,0,0,117.63,328.45Z" style="fill:#263238;stroke:#263238;stroke-miterlimit:10"></path><path d="M107,360.2l1.56-.08A7.84,7.84,0,0,0,107,360.2Z" style="fill:#263238;stroke:#263238;stroke-miterlimit:10"></path><path d="M180.46,319.85s5.54,15.47,6.38,22.68,7.82,18.24,12.47,19.11,10.3.19,12.73-4.62.24-12.83-3.34-18.74S195.62,320.72,194.29,319s-1.7-2.37-1.7-2.37Z" style="fill:#999"></path><g style="clip-path:url(#freepik--clip-path-4--inject-31)"><path d="M212.86,354.4a11.82,11.82,0,0,1-5.53,3.63c-5.45,1.92-11.54-4.81-14.11-14.75s-5.77-10.9-4.48-13.47a108.18,108.18,0,0,1,6.55-9.58c-.47-.59-.81-1-1-1.28-1.33-1.78-1.7-2.37-1.7-2.37l-12.13,3.27s5.54,15.47,6.38,22.68,7.82,18.24,12.47,19.11,10.3.19,12.73-4.62A9.22,9.22,0,0,0,212.86,354.4Z" style="opacity:0.30000000000000004"></path></g><path d="M180.46,319.85s5.54,15.47,6.38,22.68,7.82,18.24,12.47,19.11,10.3.19,12.73-4.62.24-12.83-3.34-18.74S195.62,320.72,194.29,319s-1.7-2.37-1.7-2.37Z" style="fill:none;stroke:#263238;stroke-linecap:round;stroke-linejoin:round"></path><path d="M177.4,297.23s.14,13-1.67,15.91-4.39,5.95-6.35,6.88-6.67,2.79-6.7,4.54,3.44,2.79,6.57,2.07,6.1-4,6.89-4.34,3.7-.31,6.24-1,5.29-2,7.24-2.39,6-.08,7.83-2.38a16.42,16.42,0,0,1,3.17-3.25s5.89-2.61,7.45-3,3.34-1.49,2.59-2.87-2.71-1-4.85-.87a20.12,20.12,0,0,0-4.89,1.27s3.61-5.37,5-7.1,3.38-3.63,2.24-5-4.08-.66-6.45,1.43-5.43,9.23-5.43,9.23l-2.73.53s1.67-6.19,2.69-8.7,2.63-5.2,2.28-7-3.46-2-4.84-1.06-4.21,6.34-4.64,8.47-2.49,8.12-2.49,8.12l-1.76.74s-1.4-8.58-1.35-10.91.08-4.28-2.05-4.52S177.06,294.5,177.4,297.23Z" style="fill:#737373;stroke:#263238;stroke-linecap:round;stroke-linejoin:round"></path><path d="M182,308.6s7.82-2,10.35-1.94" style="fill:none;stroke:#263238;stroke-linecap:round;stroke-linejoin:round"></path><path d="M180.53,316.54s2.32.63,6.63-1.23,6.07-1.83,6.07-1.83" style="fill:none;stroke:#263238;stroke-linecap:round;stroke-linejoin:round"></path></g><g id="freepik--Hand--inject-31"><path d="M193,199.58s-16.68,25.25-22.54,35.61-17.13,29.3-17.13,29.3-12.62,19.84-12.62,28.4,11.72,11.27,16.23,9.47,23.44-27.05,23.44-27.05l14-20.73,19.39-23.44s31.55,10.36,42.82,14,19.38,9,31.1,8.11a44,44,0,0,0,20.74-7.66s9.92-2.25,16.68-7.66,7.21-20.74,7.21-20.74a146.41,146.41,0,0,0,11.27-24.34,86.58,86.58,0,0,0,4.51-25.24l-.45-8.57,21.63-36.51L305.71,80.13,276,120.25s-14,6.76-19.83,8.11S225,139.63,215.56,150,198,193.27,198,193.27Z" style="fill:#fff"></path><g style="clip-path:url(#freepik--clip-path-5--inject-31)"><path d="M196.18,195.56l-3.16,4s-1.87,2.83-4.56,7A15,15,0,0,0,191,209.5c6.5,6,12,20.5,10,24.5s-8.5,10.5-8.5,10.5-.5,7.5-6.5,16S175.5,273,172.5,278s-11.5,18.5-20,16.5S144,283,144,283l-.68.32c-1.51,3.63-2.59,7.08-2.59,9.57,0,8.57,11.72,11.27,16.23,9.47s23.44-27.05,23.44-27.05l14-20.73,18.26-22.08c.3-1.32.59-2.65.87-4,2-9.5-2-15-5-23A16.23,16.23,0,0,0,196.18,195.56Z" style="fill:#364958"></path><path d="M366.38,127.38l-66.28-37,30.73,28-6.2,12.13,9-9.56,14.65,13.37S342.5,148.5,339,151.5c-2,1.74-5.25.28-6.41-.37.37.25,1,.68,1.91,1.37,6,4.5,7,13.5,7,13.5a45.41,45.41,0,0,0-10-6.5c-5.5-2.5-9,0-7,1s11,7,14,16-2,27-8,30.5-14,3-14,3,5.07,3.11,6.16,7.84-2.18,1.82-6.19-2.55-10.55-10.19-10.55-12.73-.91-2.49-4.28-6.52c-1.14-1.37-1.73-1.39-1.85-.43-3-3.71-5.69-4.38-8.91-4.85,1-.9,1.94-1.75,2.62-2.26,2-1.5,14.5-9.5,15-19s-1-14-3.5-8.5-4,13-7,13,1-15-2.5-17.5-2,12.88-5,18-6.5,7.5-6.5,6,4.5-14.5,3.5-17.5-4,12-10.5,16.5-18.5,7.5-26.5,2.5-7.63-19.21-7.63-19.21c-1.5,16-20.62,27.22-20.62,27.22s12.25,3.49,15.25,4.49,13.5,10,13.5,10,9.69-9.06,15-9.5,13.73,6.77,13.73,6.77l3.26-3.26c3.63,0,11.85.3,16.51,2a6.82,6.82,0,0,1,1.24.61c.69,2.45,1.71,5.45,3,8.72.27.68.52,1.31.76,1.89.13,1.91.26,4,.51,6.28,1,9-2.5,19.5-10.5,19.5s-14-6-14-6l-5.2,20.4a35,35,0,0,0,12.38,1.32,44,44,0,0,0,20.74-7.66s9.92-2.25,16.68-7.66,7.21-20.74,7.21-20.74a146.41,146.41,0,0,0,11.27-24.34,86.58,86.58,0,0,0,4.51-25.24l-.45-8.57ZM312,235c-3.09-1.16-.21-5.32-2.16-15.66a18.13,18.13,0,0,1,8.07,6.14A17,17,0,0,1,315.5,224s2.5,5,2.5,7.5S316,236.5,312,235Z" style="fill:#364958"></path><path d="M319.38,147.6a29,29,0,0,0-7.64-8c-5.09-3.64-12.37-4-12.37-4a123.38,123.38,0,0,1,12.74,8C316.84,147.23,319.38,147.6,319.38,147.6Z" style="fill:#364958"></path></g><path d="M193,199.58s-16.68,25.25-22.54,35.61-17.13,29.3-17.13,29.3-12.62,19.84-12.62,28.4,11.72,11.27,16.23,9.47,23.44-27.05,23.44-27.05l14-20.73,19.39-23.44s31.55,10.36,42.82,14,19.38,9,31.1,8.11a44,44,0,0,0,20.74-7.66s9.92-2.25,16.68-7.66,7.21-20.74,7.21-20.74a146.41,146.41,0,0,0,11.27-24.34,86.58,86.58,0,0,0,4.51-25.24l-.45-8.57,21.63-36.51L305.71,80.13,276,120.25s-14,6.76-19.83,8.11S225,139.63,215.56,150,198,193.27,198,193.27Z" style="fill:none;stroke:#263238;stroke-miterlimit:10"></path><path d="M232.26,190c6,.1,12.19,1.76,14.4,4.17,5,5.41,6.31,14.43,3.16,26.15s-4.51,37-7.21,40.57-9.92,3.6-18.48,3.15-12.18-6.31-13.08-16.68,5.41-46,8.57-52.74C221.21,191.22,226.62,189.91,232.26,190Z" style="fill:#fff"></path><g style="clip-path:url(#freepik--clip-path-6--inject-31)"><path d="M220.5,249.5a40.49,40.49,0,0,0,12.5,2c7,0,8.5-12.5,10-22s6.47-21.86,5.5-26.5c-1.84-8.83-16.47-6.65-16.47-6.65s1.34-8.45,8.72-6.61c10.58,2.65,9.43,15.94,9.25,23.26s-5.29,43.77-7.39,47.89S224.5,268,218.5,265s-8-12.5-8-12.5A42.84,42.84,0,0,0,220.5,249.5Z" style="fill:#364958"></path></g><path d="M232.26,190c6,.1,12.19,1.76,14.4,4.17,5,5.41,6.31,14.43,3.16,26.15s-4.51,37-7.21,40.57-9.92,3.6-18.48,3.15-12.18-6.31-13.08-16.68,5.41-46,8.57-52.74C221.21,191.22,226.62,189.91,232.26,190Z" style="fill:none;stroke:#263238;stroke-miterlimit:10"></path><path d="M251.17,201.39s0-7.67,8.57-9.92,16.67-2.71,18.93,4.51,1.8,38.76,2.25,45.52.45,7.67-6.31,13.08-17.13,2.25-21.18,1.35-7.67-8.57-7.67-12.17S251.17,201.39,251.17,201.39Z" style="fill:#fff"></path><g style="clip-path:url(#freepik--clip-path-7--inject-31)"><path d="M247,232s.5,8,6.5,11,22,7,22.5,4-5.5-1.5-9.5-4.5,4-4,7.5-3.5,3-9,3-16.5,3-15.5,1-22-15.5-7.5-19.5-5-6,4-6,4,.6-8.46,13.1-9,13.9,5,14.9,22.46,1.5,29.5,0,35.5-7,10.5-15.5,10-11.5-1-15.5-6.5S243,241.5,247,232Z" style="fill:#364958"></path></g><path d="M251.17,201.39s0-7.67,8.57-9.92,16.67-2.71,18.93,4.51,1.8,38.76,2.25,45.52.45,7.67-6.31,13.08-17.13,2.25-21.18,1.35-7.67-8.57-7.67-12.17S251.17,201.39,251.17,201.39Z" style="fill:none;stroke:#263238;stroke-miterlimit:10"></path><path d="M279.73,201.77s2.21-11.24,8.15-11.44c3.61-.12,12,.75,13.76,5.71s5,12.56,5,12.56,6.49,16.08,2,25.55" style="fill:none;stroke:#263238;stroke-miterlimit:10"></path><path d="M309.77,218.51s6.31,2.26,10.82,10.82" style="fill:none;stroke:#263238;stroke-miterlimit:10"></path><path d="M276.41,190.57s13.53-5.86,17.13-21.19" style="fill:none;stroke:#263238;stroke-miterlimit:10"></path><path d="M298.05,140.53A31,31,0,0,0,310.22,150c7.67,3.15,19.84,5,24.79,14" style="fill:none;stroke:#263238;stroke-miterlimit:10"></path><path d="M325.1,148.65s10.82,3.6,14.87,12.17" style="fill:none;stroke:#263238;stroke-miterlimit:10"></path><path d="M157.86,263.59s9,6.31,12.62,10.37" style="fill:none;stroke:#263238;stroke-miterlimit:10"></path><path d="M176.79,238.8s9,2.25,12.63,9.47" style="fill:none;stroke:#263238;stroke-miterlimit:10"></path><path d="M236.67,172.21a65.18,65.18,0,0,1-.52,13.4c-1,8.77-7.21,15.47-7.21,15.47S231,203.5,232,211.39c1.16,8.88-2.14,26.26-6.27,32.44s-8.17,8.81-13.32,8.81-6.71-6.7-6.71-13.41-3.61-16-3.61-16-10.82-20.11-10.31-26.81c.62-8.07,6.92-17.27,10.45-24.32s7-13.74,10.69-20.54a27.84,27.84,0,0,1,17.53-11.34c7-1.46,20.11-8.25,20.11-8.25" style="fill:#fff"></path><g style="clip-path:url(#freepik--clip-path-8--inject-31)"><path d="M193.5,203s2-11.5,18.5-8.5,14.5,3.5,9-2.5-8.5-9-3.5-9,12,4.5,14,3,1-16,3-19.5,2.55,2.89,2.55,2.89.19,5.2,0,8.73c-.52,9.77.18,9.55-2.11,14A18.33,18.33,0,0,0,233,201s2.5,24.5,0,34-12.5,19.5-19.5,19.5S202.5,235,199,226,193.5,203,193.5,203Z" style="fill:#364958"></path></g><path d="M236.67,172.21a65.18,65.18,0,0,1-.52,13.4c-1,8.77-7.21,15.47-7.21,15.47S231,203.5,232,211.39c1.16,8.88-2.14,26.26-6.27,32.44s-8.17,8.81-13.32,8.81-6.71-6.7-6.71-13.41-3.61-16-3.61-16-10.82-20.11-10.31-26.81c.62-8.07,6.92-17.27,10.45-24.32s7-13.74,10.69-20.54a27.84,27.84,0,0,1,17.53-11.34c7-1.46,20.11-8.25,20.11-8.25" style="fill:none;stroke:#263238;stroke-miterlimit:10"></path><path d="M221.27,196.81c6.5,0,7.67,4.27,7.67,4.27s-3-10.81-8.42-14.42" style="fill:none;stroke:#263238;stroke-miterlimit:10"></path><path d="M235.71,190s9.38-7.94,6.85-24.9" style="fill:none;stroke:#263238;stroke-miterlimit:10"></path><path d="M195.33,198.43a14.65,14.65,0,0,1,15-4.49" style="fill:none;stroke:#263238;stroke-miterlimit:10"></path><path d="M207.55,234a11.85,11.85,0,0,1,10.94-3.48,3.12,3.12,0,0,1,2.5,2.85c.17,2.78.44,7.54.44,9.43,0,2.75-.57,6.05-3.47,6.6s-6.36,1.65-8.1.55-2.35-2.89-2.68-13.24" style="fill:none;stroke:#263238;stroke-miterlimit:10"></path><path d="M198,193.27s5.83-4.32,11.82-2.82" style="fill:none;stroke:#263238;stroke-miterlimit:10"></path><path d="M254.2,251.82s5,3,16,2" style="fill:none;stroke:#263238;stroke-miterlimit:10"></path><path d="M220.77,258.8s2,1.5,16,1" style="fill:none;stroke:#263238;stroke-miterlimit:10"></path><path d="M217.28,256.31s3.49-1,13,1" style="fill:none;stroke:#263238;stroke-miterlimit:10"></path><path d="M260.69,195.44s4.49-3,13.47,1.49" style="fill:none;stroke:#263238;stroke-miterlimit:10"></path><path d="M235.74,196.43s5-3,11.48,3.5" style="fill:none;stroke:#263238;stroke-miterlimit:10"></path><path d="M284.19,187A50.15,50.15,0,0,0,305,166.51" style="fill:none;stroke:#263238;stroke-miterlimit:10"></path><path d="M288.11,196.26a15.87,15.87,0,0,1,15.44,4.33" style="fill:none;stroke:#263238;stroke-miterlimit:10"></path><path d="M260.76,250.7a21.57,21.57,0,0,0,12.19.81" style="fill:none;stroke:#263238;stroke-miterlimit:10"></path><path d="M178.15,242.41a35.4,35.4,0,0,0,9,6.31" style="fill:none;stroke:#263238;stroke-miterlimit:10"></path><path d="M191.22,212.2s8.11,4.51,9,9" style="fill:none;stroke:#263238;stroke-miterlimit:10"></path><polygon points="293.09 85.99 379.64 142.33 396.77 109.88 305.71 60.74 293.09 85.99" style="fill:#fff;stroke:#263238;stroke-miterlimit:10"></polygon><polygon points="305.17 69.47 387.32 125.62 391.13 117.65 305.17 69.47" style="fill:#364958"></polygon><path d="M379.79,126.56a3.61,3.61,0,1,1-3.6-3.61A3.6,3.6,0,0,1,379.79,126.56Z" style="fill:#fff;stroke:#263238;stroke-miterlimit:10"></path><path d="M316.83,32.2,300.31,65.7l108.18,66.72L461.08,32.2S393.67-2.61,316.83,32.2Z" style="fill:#263238;stroke:#263238;stroke-miterlimit:10"></path><path d="M410.44,117.54a4.21,4.21,0,1,1-4.2-4.21A4.2,4.2,0,0,1,410.44,117.54Z" style="fill:#fff;stroke:#263238;stroke-miterlimit:10"></path><path d="M418.86,103.12a4.21,4.21,0,1,1-4.21-4.21A4.21,4.21,0,0,1,418.86,103.12Z" style="fill:#fff;stroke:#263238;stroke-miterlimit:10"></path><circle cx="423.07" cy="88.69" r="4.21" style="fill:#fff;stroke:#263238;stroke-miterlimit:10"></circle><path d="M332.59,151.13c-.63-.42-.52-.3,0,0Z" style="fill:#364958"></path></g></svg>