<svg xmlns="http://www.w3.org/2000/svg" viewBox="0 0 500 500"><g id="freepik--background-complete--inject-119"><rect y="382.4" width="500" height="0.25" style="fill:#ebebeb"></rect><rect x="52.46" y="391.92" width="33.12" height="0.25" style="fill:#ebebeb"></rect><rect x="145.33" y="389.21" width="34.5" height="0.25" style="fill:#ebebeb"></rect><rect x="76.08" y="396.75" width="55.42" height="0.25" style="fill:#ebebeb"></rect><rect x="405.64" y="397.67" width="43.19" height="0.25" style="fill:#ebebeb"></rect><rect x="370.43" y="391.42" width="22.9" height="0.25" style="fill:#ebebeb"></rect><rect x="195.63" y="395.43" width="93.68" height="0.25" style="fill:#ebebeb"></rect><path d="M237,337.8H43.92a5.71,5.71,0,0,1-5.71-5.71V60.66A5.71,5.71,0,0,1,43.92,55H237a5.71,5.71,0,0,1,5.71,5.71V332.09A5.71,5.71,0,0,1,237,337.8ZM43.92,55.2a5.47,5.47,0,0,0-5.46,5.46V332.09a5.47,5.47,0,0,0,5.46,5.46H237a5.47,5.47,0,0,0,5.46-5.46V60.66A5.47,5.47,0,0,0,237,55.2Z" style="fill:#ebebeb"></path><path d="M453.31,337.8H260.21a5.72,5.72,0,0,1-5.71-5.71V60.66A5.72,5.72,0,0,1,260.21,55h193.1A5.71,5.71,0,0,1,459,60.66V332.09A5.71,5.71,0,0,1,453.31,337.8ZM260.21,55.2a5.47,5.47,0,0,0-5.46,5.46V332.09a5.47,5.47,0,0,0,5.46,5.46h193.1a5.47,5.47,0,0,0,5.46-5.46V60.66a5.47,5.47,0,0,0-5.46-5.46Z" style="fill:#ebebeb"></path><rect x="21.56" y="287" width="456.89" height="95.4" style="fill:#ebebeb"></rect><polygon points="466.75 266.71 33.25 266.71 29.33 287 470.67 287 466.75 266.71" style="fill:#f5f5f5"></polygon><polygon points="468.53 266.33 31.47 266.33 30.64 270.62 469.37 270.62 468.53 266.33" style="fill:#f0f0f0"></polygon><polygon points="462.9 246.76 37.1 246.76 33.33 266.33 466.68 266.33 462.9 246.76" style="fill:#f5f5f5"></polygon><polygon points="464.65 246.39 35.35 246.39 34.55 250.53 465.45 250.53 464.65 246.39" style="fill:#f0f0f0"></polygon><polygon points="459.18 227.5 40.82 227.5 37.18 246.39 462.82 246.39 459.18 227.5" style="fill:#f5f5f5"></polygon><polygon points="460.9 227.14 39.1 227.14 38.32 231.14 461.68 231.14 460.9 227.14" style="fill:#f0f0f0"></polygon><polygon points="455.59 208.91 44.41 208.91 40.89 227.14 459.11 227.14 455.59 208.91" style="fill:#f5f5f5"></polygon><polygon points="457.24 208.34 42.76 208.34 42.01 212.2 457.99 212.2 457.24 208.34" style="fill:#f0f0f0"></polygon><polygon points="452.08 190.72 47.92 190.72 44.52 208.34 455.48 208.34 452.08 190.72" style="fill:#f5f5f5"></polygon><polygon points="453.74 190.39 46.26 190.39 45.53 194.12 454.47 194.12 453.74 190.39" style="fill:#f0f0f0"></polygon><polygon points="448.72 173.36 51.28 173.36 47.99 190.39 452.01 190.39 448.72 173.36" style="fill:#f5f5f5"></polygon><polygon points="450.36 173.03 49.64 173.03 48.94 176.64 451.06 176.64 450.36 173.03" style="fill:#f0f0f0"></polygon><polygon points="445.48 156.56 54.52 156.56 51.34 173.03 448.66 173.03 445.48 156.56" style="fill:#f5f5f5"></polygon><polygon points="447.09 156.25 52.91 156.25 52.23 159.74 447.77 159.74 447.09 156.25" style="fill:#f0f0f0"></polygon><polygon points="442.34 140.31 57.66 140.31 54.58 156.25 445.42 156.25 442.34 140.31" style="fill:#f5f5f5"></polygon><polygon points="443.89 139.8 56.11 139.8 55.45 143.18 444.55 143.18 443.89 139.8" style="fill:#f0f0f0"></polygon><rect x="49" y="304.33" width="193.72" height="78.07" style="fill:#e6e6e6"></rect><rect x="254.75" y="304.33" width="193.72" height="78.07" style="fill:#e6e6e6"></rect><path d="M83.62,113.63A5.76,5.76,0,0,1,78,118.84a4.74,4.74,0,0,1-4.8-5.21,5.77,5.77,0,0,1,5.64-5.22A4.75,4.75,0,0,1,83.62,113.63Z" style="fill:#f0f0f0"></path><path d="M96,113.63a5.75,5.75,0,0,1-5.64,5.21,4.73,4.73,0,0,1-4.79-5.21,5.76,5.76,0,0,1,5.64-5.22A4.74,4.74,0,0,1,96,113.63Z" style="fill:#f0f0f0"></path><path d="M108.33,113.63a5.75,5.75,0,0,1-5.64,5.21,4.73,4.73,0,0,1-4.79-5.21,5.76,5.76,0,0,1,5.64-5.22A4.74,4.74,0,0,1,108.33,113.63Z" style="fill:#f0f0f0"></path><path d="M120.69,113.63a5.75,5.75,0,0,1-5.64,5.21,4.73,4.73,0,0,1-4.79-5.21,5.75,5.75,0,0,1,5.63-5.22A4.74,4.74,0,0,1,120.69,113.63Z" style="fill:#f0f0f0"></path><path d="M133.05,113.63a5.76,5.76,0,0,1-5.64,5.21,4.74,4.74,0,0,1-4.8-5.21,5.77,5.77,0,0,1,5.64-5.22A4.75,4.75,0,0,1,133.05,113.63Z" style="fill:#f0f0f0"></path><path d="M145.4,113.63a5.75,5.75,0,0,1-5.64,5.21,4.73,4.73,0,0,1-4.79-5.21,5.76,5.76,0,0,1,5.64-5.22A4.74,4.74,0,0,1,145.4,113.63Z" style="fill:#f0f0f0"></path><path d="M82.67,125.29A5.76,5.76,0,0,1,77,130.51a4.73,4.73,0,0,1-4.79-5.22,5.75,5.75,0,0,1,5.64-5.21A4.73,4.73,0,0,1,82.67,125.29Z" style="fill:#f0f0f0"></path><path d="M95,125.29a5.76,5.76,0,0,1-5.64,5.22,4.74,4.74,0,0,1-4.8-5.22,5.76,5.76,0,0,1,5.64-5.21A4.74,4.74,0,0,1,95,125.29Z" style="fill:#f0f0f0"></path><path d="M107.39,125.29a5.76,5.76,0,0,1-5.64,5.22,4.74,4.74,0,0,1-4.8-5.22,5.76,5.76,0,0,1,5.64-5.21A4.74,4.74,0,0,1,107.39,125.29Z" style="fill:#f0f0f0"></path><path d="M119.74,125.29a5.76,5.76,0,0,1-5.64,5.22,4.74,4.74,0,0,1-4.79-5.22,5.75,5.75,0,0,1,5.64-5.21A4.73,4.73,0,0,1,119.74,125.29Z" style="fill:#f0f0f0"></path><path d="M132.1,125.29a5.76,5.76,0,0,1-5.64,5.22,4.73,4.73,0,0,1-4.79-5.22,5.75,5.75,0,0,1,5.64-5.21A4.73,4.73,0,0,1,132.1,125.29Z" style="fill:#f0f0f0"></path><path d="M144.46,125.29a5.76,5.76,0,0,1-5.64,5.22,4.74,4.74,0,0,1-4.8-5.22,5.76,5.76,0,0,1,5.64-5.21A4.74,4.74,0,0,1,144.46,125.29Z" style="fill:#f0f0f0"></path><path d="M81.72,137a5.76,5.76,0,0,1-5.64,5.22A4.74,4.74,0,0,1,71.29,137a5.76,5.76,0,0,1,5.64-5.22A4.74,4.74,0,0,1,81.72,137Z" style="fill:#f0f0f0"></path><path d="M94.08,137a5.76,5.76,0,0,1-5.64,5.22A4.74,4.74,0,0,1,83.65,137a5.76,5.76,0,0,1,5.64-5.22A4.74,4.74,0,0,1,94.08,137Z" style="fill:#f0f0f0"></path><path d="M106.44,137a5.76,5.76,0,0,1-5.64,5.22A4.74,4.74,0,0,1,96,137a5.76,5.76,0,0,1,5.64-5.22A4.74,4.74,0,0,1,106.44,137Z" style="fill:#f0f0f0"></path><path d="M118.8,137a5.77,5.77,0,0,1-5.64,5.22,4.75,4.75,0,0,1-4.8-5.22,5.77,5.77,0,0,1,5.64-5.22A4.75,4.75,0,0,1,118.8,137Z" style="fill:#f0f0f0"></path><path d="M131.16,137a5.77,5.77,0,0,1-5.64,5.22,4.74,4.74,0,0,1-4.8-5.22,5.76,5.76,0,0,1,5.64-5.22A4.75,4.75,0,0,1,131.16,137Z" style="fill:#f0f0f0"></path><path d="M143.51,137a5.76,5.76,0,0,1-5.64,5.22,4.74,4.74,0,0,1-4.79-5.22,5.76,5.76,0,0,1,5.64-5.22A4.74,4.74,0,0,1,143.51,137Z" style="fill:#f0f0f0"></path><path d="M416.38,113.63a5.76,5.76,0,0,0,5.64,5.21,4.74,4.74,0,0,0,4.8-5.21,5.77,5.77,0,0,0-5.64-5.22A4.75,4.75,0,0,0,416.38,113.63Z" style="fill:#f0f0f0"></path><path d="M404,113.63a5.75,5.75,0,0,0,5.64,5.21,4.73,4.73,0,0,0,4.79-5.21,5.76,5.76,0,0,0-5.64-5.22A4.74,4.74,0,0,0,404,113.63Z" style="fill:#f0f0f0"></path><path d="M391.67,113.63a5.75,5.75,0,0,0,5.64,5.21,4.73,4.73,0,0,0,4.79-5.21,5.76,5.76,0,0,0-5.64-5.22A4.74,4.74,0,0,0,391.67,113.63Z" style="fill:#f0f0f0"></path><path d="M379.31,113.63a5.75,5.75,0,0,0,5.64,5.21,4.74,4.74,0,0,0,4.8-5.21,5.77,5.77,0,0,0-5.64-5.22A4.74,4.74,0,0,0,379.31,113.63Z" style="fill:#f0f0f0"></path><path d="M367,113.63a5.76,5.76,0,0,0,5.64,5.21,4.74,4.74,0,0,0,4.8-5.21,5.77,5.77,0,0,0-5.64-5.22A4.75,4.75,0,0,0,367,113.63Z" style="fill:#f0f0f0"></path><path d="M354.6,113.63a5.75,5.75,0,0,0,5.64,5.21,4.73,4.73,0,0,0,4.79-5.21,5.76,5.76,0,0,0-5.64-5.22A4.74,4.74,0,0,0,354.6,113.63Z" style="fill:#f0f0f0"></path><path d="M417.33,125.29a5.76,5.76,0,0,0,5.64,5.22,4.73,4.73,0,0,0,4.79-5.22,5.75,5.75,0,0,0-5.64-5.21A4.73,4.73,0,0,0,417.33,125.29Z" style="fill:#f0f0f0"></path><path d="M405,125.29a5.76,5.76,0,0,0,5.64,5.22,4.74,4.74,0,0,0,4.8-5.22,5.76,5.76,0,0,0-5.64-5.21A4.74,4.74,0,0,0,405,125.29Z" style="fill:#f0f0f0"></path><path d="M392.61,125.29a5.76,5.76,0,0,0,5.64,5.22,4.74,4.74,0,0,0,4.8-5.22,5.76,5.76,0,0,0-5.64-5.21A4.74,4.74,0,0,0,392.61,125.29Z" style="fill:#f0f0f0"></path><path d="M380.26,125.29a5.76,5.76,0,0,0,5.64,5.22,4.74,4.74,0,0,0,4.79-5.22,5.75,5.75,0,0,0-5.64-5.21A4.73,4.73,0,0,0,380.26,125.29Z" style="fill:#f0f0f0"></path><path d="M367.9,125.29a5.76,5.76,0,0,0,5.64,5.22,4.73,4.73,0,0,0,4.79-5.22,5.75,5.75,0,0,0-5.64-5.21A4.73,4.73,0,0,0,367.9,125.29Z" style="fill:#f0f0f0"></path><path d="M355.54,125.29a5.76,5.76,0,0,0,5.64,5.22,4.74,4.74,0,0,0,4.8-5.22,5.76,5.76,0,0,0-5.64-5.21A4.74,4.74,0,0,0,355.54,125.29Z" style="fill:#f0f0f0"></path><path d="M418.28,137a5.76,5.76,0,0,0,5.64,5.22,4.74,4.74,0,0,0,4.79-5.22,5.76,5.76,0,0,0-5.64-5.22A4.74,4.74,0,0,0,418.28,137Z" style="fill:#f0f0f0"></path><path d="M405.92,137a5.76,5.76,0,0,0,5.64,5.22,4.74,4.74,0,0,0,4.79-5.22,5.76,5.76,0,0,0-5.64-5.22A4.74,4.74,0,0,0,405.92,137Z" style="fill:#f0f0f0"></path><path d="M393.56,137a5.76,5.76,0,0,0,5.64,5.22A4.74,4.74,0,0,0,404,137a5.76,5.76,0,0,0-5.64-5.22A4.74,4.74,0,0,0,393.56,137Z" style="fill:#f0f0f0"></path><path d="M381.2,137a5.77,5.77,0,0,0,5.64,5.22,4.75,4.75,0,0,0,4.8-5.22,5.77,5.77,0,0,0-5.64-5.22A4.75,4.75,0,0,0,381.2,137Z" style="fill:#f0f0f0"></path><path d="M368.84,137a5.77,5.77,0,0,0,5.64,5.22,4.74,4.74,0,0,0,4.8-5.22,5.76,5.76,0,0,0-5.64-5.22A4.75,4.75,0,0,0,368.84,137Z" style="fill:#f0f0f0"></path><path d="M356.49,137a5.76,5.76,0,0,0,5.64,5.22,4.74,4.74,0,0,0,4.79-5.22,5.76,5.76,0,0,0-5.64-5.22A4.74,4.74,0,0,0,356.49,137Z" style="fill:#f0f0f0"></path></g><g id="freepik--Shadow--inject-119"><ellipse id="freepik--path--inject-119" cx="250" cy="416.24" rx="193.89" ry="11.32" style="fill:#f5f5f5"></ellipse></g><g id="freepik--Obstacle--inject-119"><rect x="211.99" y="262" width="82.64" height="17.33" style="fill:#52B77C"></rect><rect x="218.16" y="279.33" width="10.67" height="136.9" style="fill:#263238"></rect><rect x="233.39" y="363.01" width="1.99" height="104.47" transform="translate(-180.86 649.62) rotate(-90)" style="fill:#263238"></rect><rect x="275.96" y="279.33" width="10.67" height="136.9" style="fill:#263238"></rect><rect x="219.08" y="279.33" width="10.67" height="136.9" style="fill:#52B77C"></rect><rect x="290.05" y="384.11" width="1" height="4.89" style="fill:#52B77C"></rect><rect x="290.05" y="365.22" width="1" height="14.33" style="fill:#52B77C"></rect><rect x="276.88" y="279.33" width="10.67" height="136.9" style="fill:#52B77C"></rect><rect x="219.08" y="298.33" width="10.67" height="72.68" style="fill:#fff;opacity:0.5"></rect><rect x="276.88" y="298.33" width="10.67" height="72.68" style="fill:#fff;opacity:0.5"></rect><rect x="219.08" y="279.33" width="10.67" height="1.89" style="opacity:0.2"></rect><rect x="276.88" y="279.33" width="10.67" height="1.89" style="opacity:0.2"></rect><rect x="210.65" y="262" width="1.35" height="17.33" transform="translate(422.64 541.33) rotate(180)" style="fill:#263238"></rect></g><g id="freepik--Character--inject-119"><path d="M271.8,146.56c-5.57-.37-11.18-.81-16.74-1.28s-11.18-1-16.56-1.31H238a2.12,2.12,0,0,0-.42,0,9.47,9.47,0,0,0-1.24.3,19,19,0,0,0-3.06,1.34,58.29,58.29,0,0,0-6.5,4.19c-2.17,1.57-4.3,3.27-6.42,5s-4.24,3.57-6.29,5.34l-.09.08a3,3,0,0,1-4.34-3.95A95,95,0,0,1,221,142.94a54.35,54.35,0,0,1,7.08-5.84,28.31,28.31,0,0,1,4.44-2.51,16.56,16.56,0,0,1,2.79-1,15.8,15.8,0,0,1,1.66-.31c.3,0,.6-.06.92-.07l.72,0c3-.08,5.81-.06,8.67,0s5.69.15,8.52.29c5.67.26,11.3.65,17,1.19a5.94,5.94,0,0,1-.95,11.85Z" style="fill:#b55b52"></path><path d="M214.91,159l-2,5.12a5,5,0,0,1-6.78,2.67h0a5,5,0,0,1-.65-8.62,24.74,24.74,0,0,1,5-2.73Z" style="fill:#b55b52"></path><path d="M278.13,142.44c-7.32,10-18.29,27.28-23.33,47.09l-43.22-5.25c1.37-8,9-32.79,23.1-50.63a17.14,17.14,0,0,1,13.46-6.44c2.1,0,4.4.05,6.65.21a159.33,159.33,0,0,1,18.38,2.24l.19,0A8.12,8.12,0,0,1,278.13,142.44Z" style="fill:#263238"></path><path d="M249.11,144.52c-2.79,4.81-8.32,6.81-12.36,4.47s-5-8.13-2.25-12.94,8.32-6.81,12.35-4.47S251.9,139.71,249.11,144.52Z" style="fill:#b55b52"></path><path d="M240.45,150.47a7.81,7.81,0,0,1-3.95-1.05c-4.26-2.47-5.36-8.58-2.43-13.62s8.77-7.13,13-4.65A8.24,8.24,0,0,1,251,137a11.49,11.49,0,0,1-1.49,7.73h0a11.59,11.59,0,0,1-6,5.14A9.15,9.15,0,0,1,240.45,150.47Zm2.71-19.37a9.89,9.89,0,0,0-8.23,5.2c-2.64,4.56-1.71,10.06,2.07,12.26a7.33,7.33,0,0,0,6.23.41,10.62,10.62,0,0,0,5.45-4.7h0a10.57,10.57,0,0,0,1.37-7.06,7.29,7.29,0,0,0-3.45-5.2A6.76,6.76,0,0,0,243.16,131.1Z" style="fill:#fff"></path><path d="M240.67,143.56c0,3.41,3.41,12.86,9.33,19.86,3.86,4.57,11.75,2.41,11.75,2.41Z" style="opacity:0.2"></path><path d="M272.91,132.29a3,3,0,0,0-1.61-2.43,8.83,8.83,0,0,1-1.28-.78c-4.7-.75-10.76-1.33-15.23-1.66l-.74,0a2.93,2.93,0,0,0-.49,3.39,24.14,24.14,0,0,0,13,11.46,2.92,2.92,0,0,0,1.13.22,2.85,2.85,0,0,0,1.32-.31C271.91,140.69,273.26,137.28,272.91,132.29Z" style="fill:#fff"></path><path d="M259.06,108.64c.15,5.63-.4,15.47-4.29,19.44a2,2,0,0,0-.32,2.24,23,23,0,0,0,12.46,11,2,2,0,0,0,1.63-.06c3.24-1.62,3.59-5.83,3.38-8.89a2,2,0,0,0-1.08-1.61c-5.18-2.66-4-6.53-2.18-10.66Z" style="fill:#b55b52"></path><path d="M263,113.33l0,0a9.09,9.09,0,0,0-.67,3.15c-.15,2.31,2.77,5.59,5.14,6.93a21.77,21.77,0,0,1,1.21-3.3Z" style="opacity:0.2"></path><path d="M280.54,97.93c-1.4.61-3.2-.4-4-2.27s-.34-3.88,1.07-4.49,3.2.4,4,2.27S281.94,97.31,280.54,97.93Z" style="fill:#263238"></path><path d="M259.85,99.69c-.85,8-1.76,12.69,1.57,17.45,5,7.15,15.44,5.16,18.67-2.46,2.91-6.86,3.81-18.84-3.44-23.32A11,11,0,0,0,259.85,99.69Z" style="fill:#b55b52"></path><path d="M281,89.43a4,4,0,0,0-3.24-1.55,4.56,4.56,0,0,0-.47-1.16c-1-1.77-2.91-2.58-4.24-1.82A2.32,2.32,0,0,0,272,86.29a4.61,4.61,0,0,0-.82-.9c-1.56-1.31-3.63-1.41-4.61-.23a2.13,2.13,0,0,0-.38.75,4.44,4.44,0,0,0-1.52-.66c-2-.45-3.89.47-4.24,2v0l-.08,0c-1.91-.71-3.91-.07-4.48,1.44a2.48,2.48,0,0,0,0,1.57,2.87,2.87,0,0,0-2.19,1.36A3,3,0,0,0,254,95a2.64,2.64,0,0,0-.92,1.24c-.54,1.61.59,3.43,2.52,4.08a3.77,3.77,0,0,0,1.9,3c.08.48.16,1,.25,1.44,6.5,3.89,8.5-10.11,8.5-10.11s8.11,2.16,14.78.5a4.13,4.13,0,0,0-.38-.81,2.14,2.14,0,0,0,.54-.32C282.4,93.06,282.3,91,281,89.43Z" style="fill:#263238"></path><path d="M254.78,107.85a7.63,7.63,0,0,0,4.16,4.13c2.5,1,4-1.15,3.6-3.66-.41-2.26-2.19-5.51-4.82-5.45S253.84,105.54,254.78,107.85Z" style="fill:#b55b52"></path><path d="M235,189.86s53.42.21,71.92,16.78c19.25,17.24,54,48.57,54,48.57L357.68,261s-42.11-17.06-60.32-34.71c-11.92-11.56-72.79-11.3-72.79-11.3Z" style="fill:#b55b52"></path><path d="M360.27,253.82l-8.32,3.8a.71.71,0,0,0-.4.79l1.54,7.25a1.2,1.2,0,0,0,1.69.82c2.88-1.37,4.21-2.19,7.87-3.85,2.25-1,10.27-4.4,13.37-5.82s2.12-4.68.72-4.38c-6.28,1.36-12.48,2.11-15.06,1.3A2,2,0,0,0,360.27,253.82Z" style="fill:#52B77C"></path><path d="M254.8,189.53a42.17,42.17,0,0,1,9.84,2.81c-1.2,4.42-6,22.8-8.25,26.67-9.95-1.39-37.34-1.35-43.45-7.39-9.16-9.06,2.13-26.91,2.13-26.91Z" style="fill:#52B77C"></path><path d="M232.54,200.7c-4-5-19,4.56-20.38,10.06a10.44,10.44,0,0,0,.78.86c3.46,3.42,13.76,4.89,23.85,5.78C236.86,210.31,235.48,204.31,232.54,200.7Z" style="opacity:0.2"></path><path d="M262.89,190.6a12.37,12.37,0,0,1,4.1,1.5c-1.21,3-7.12,23.48-7.52,27.71-2.12.79-4.68-.57-4.7-.47S257.92,201.06,262.89,190.6Z" style="fill:#263238"></path><path d="M238.39,194.28s-21.18,50.44-39.22,67C180,279,138.5,223.79,138.5,223.79l6.15-3.36s28,21.19,40.24,24c15.55-14.94,26-54.58,26-54.58Z" style="fill:#b55b52"></path><path d="M243.69,188.18s-12.69,29.71-17.3,37.58c-3.71-1.7-21.48-8.25-25.95-8.09.06-4.84,11.14-33.39,11.14-33.39Z" style="fill:#52B77C"></path><path d="M227.66,224.21a12.48,12.48,0,0,1-1.68,4c-2.89-1.34-23.15-8.14-27.35-8.72-.7-2.15.77-4.66.67-4.68S217.43,218.78,227.66,224.21Z" style="fill:#263238"></path><path d="M138.32,224.89l8.45-3.49a.71.71,0,0,0,.43-.78l-1.27-7.3a1.2,1.2,0,0,0-1.66-.88c-2.93,1.26-4.29,2-8,3.56-2.29.94-10.42,4-13.58,5.32s-2.28,4.6-.87,4.35c6.32-1.12,12.55-1.65,15.09-.74A2,2,0,0,0,138.32,224.89Z" style="fill:#52B77C"></path><path d="M271.54,103.94c-.11.64.14,1.23.56,1.3s.86-.4,1-1-.15-1.23-.57-1.3S271.64,103.29,271.54,103.94Z" style="fill:#263238"></path><path d="M278.85,105.17c-.11.64.15,1.23.57,1.3s.86-.4,1-1-.15-1.23-.57-1.3S279,104.52,278.85,105.17Z" style="fill:#263238"></path><path d="M276.47,105.1a23.47,23.47,0,0,0,2.17,6.05,3.81,3.81,0,0,1-3.2.07Z" style="fill:#a02724"></path><path d="M273.28,112.69a.19.19,0,0,0,.2-.16.18.18,0,0,0-.16-.22,5.2,5.2,0,0,1-3.84-2.71.2.2,0,0,0-.26-.1.2.2,0,0,0-.1.25,5.54,5.54,0,0,0,4.14,2.94Z" style="fill:#263238"></path><path d="M270.38,101.54a.37.37,0,0,0,.29-.06,3.07,3.07,0,0,1,2.75-.51.37.37,0,0,0,.49-.22.38.38,0,0,0-.22-.5,3.81,3.81,0,0,0-3.47.6.38.38,0,0,0-.08.54A.37.37,0,0,0,270.38,101.54Z" style="fill:#263238"></path><path d="M282.93,103.86a.27.27,0,0,0,.12,0,.39.39,0,0,0,.2-.51,3.88,3.88,0,0,0-2.69-2.27.4.4,0,0,0-.45.32.39.39,0,0,0,.32.44,3.09,3.09,0,0,1,2.11,1.82A.39.39,0,0,0,282.93,103.86Z" style="fill:#263238"></path><path d="M248,134.13c4,5.33,8.11,10.74,12.25,16,2.08,2.61,4.18,5.19,6.31,7.65,1.06,1.22,2.15,2.41,3.22,3.51a25.65,25.65,0,0,0,3,2.72,9.33,9.33,0,0,0,1.51.86c.65.31,1.35.62,2.07.92,1.45.62,3,1.2,4.53,1.76,3.12,1.11,6.3,2.22,9.51,3.25l19.38,6.32h0a3,3,0,0,1-1.29,5.75c-6.87-.87-13.64-2-20.42-3.39-3.39-.73-6.78-1.47-10.19-2.4-1.7-.46-3.41-1-5.17-1.52-.88-.28-1.76-.61-2.69-1a19.81,19.81,0,0,1-3-1.48,33.06,33.06,0,0,1-4.9-3.8c-1.39-1.26-2.66-2.54-3.91-3.83-2.49-2.58-4.8-5.21-7.05-7.87-4.51-5.35-8.71-10.78-12.77-16.47a5.94,5.94,0,0,1,9.58-7Z" style="fill:#b55b52"></path><path d="M307.68,176.83l5.36-1.26a5,5,0,0,1,6,4.06h0a5,5,0,0,1-6.7,5.44,24.59,24.59,0,0,1-5.12-2.59Z" style="fill:#b55b52"></path></g></svg>
